<?xml version="1.0" encoding="UTF-8"?>
<!DOCTYPE svg PUBLIC "-//W3C//DTD SVG 1.1//EN"
  "http://www.w3.org/Graphics/SVG/1.1/DTD/svg11.dtd">
<!-- Created with Inkpad (http://inkpad.envoza.com/) --><svg height="116pt" viewBox="0,0,468,116" xmlns:xlink="http://www.w3.org/1999/xlink" xmlns="http://www.w3.org/2000/svg" width="468pt" xmlns:inkscape="http://www.inkscape.org/namespaces/inkscape" version="1.1" xmlns:inkpad="http://inkpad.envoza.com/svg_extensions">
<metadata>
</metadata>
<g id="IMG_0071" inkscape:label="IMG_0071" inkscape:groupmode="layer" inkpad:layerName="IMG_0071">
<use opacity="1" xlink:href="#Image" transform="matrix(1 0 0 1 0 0)"/>
</g>
<g id="Ebene 1" inkscape:label="Ebene 1" inkscape:groupmode="layer" inkpad:layerName="Ebene 1">
<path stroke="#323e28" stroke-width="1.5" d="M147.778+25.1548C144.409+25.1548+141.976+24.509+140.478+23.2175C138.981+21.926+138.232+20.1011+138.232+17.7427C138.232+15.272+139.187+13.2411+141.096+11.6501C143.005+10.0592+145.719+9.26367+149.238+9.26367C152.832+9.26367+155.377+9.94686+156.875+11.3132C158.372+12.6796+159.121+14.4671+159.121+16.6758C159.121+19.109+158.222+21.1305+156.426+22.7402C154.629+24.3499+151.746+25.1548+147.778+25.1548ZM158.054+81.3071L164.68+81.3071C165.316+82.5425+165.635+83.9276+165.635+85.4624C165.635+86.7726+165.363+87.6898+164.82+88.2139C164.278+88.738+163.22+89+161.648+89L134.695+89C134.058+87.4277+133.74+85.9491+133.74+84.564C133.74+83.4035+134.002+82.5706+134.526+82.0652C135.05+81.5598+135.892+81.3071+137.053+81.3071L141.657+81.3071C141.845+76.5155+141.938+71.4056+141.938+65.9775C141.938+57.7044+141.873+52.2109+141.742+49.4968C141.611+46.7828+141.321+44.7987+140.871+43.5447C140.422+42.2906+139.73+41.5045+138.794+41.1863C137.858+40.8681+136.491+40.709+134.695+40.709C134.058+39.6608+133.74+38.4442+133.74+37.0591C133.74+34.9627+134.601+33.6712+136.323+33.1846C138.045+32.6979+141.545+32.4546+146.823+32.4546C150.792+32.4546+153.496+32.6043+154.938+32.9038C156.379+33.2033+157.202+33.7929+157.408+34.6726C157.614+35.5523+157.717+36.7783+157.717+38.3506L157.717+65.9775C157.754+71.4056+157.867+76.5155+158.054+81.3071Z" fill="#354e13" stroke-linecap="round" opacity="1" stroke-linejoin="round"/>
<path stroke="#323e28" stroke-width="1.5" d="M191.802+38.9121C195.882+36.3665+199.803+34.5603+203.565+33.4934C207.328+32.4265+210.482+31.8931+213.027+31.8931C218.305+31.8931+222.227+33.0535+224.791+35.3745C227.355+37.6955+228.637+42.3748+228.637+49.4126C228.637+67.8306+228.974+77.7602+229.648+79.2014C230.322+80.6427+231.782+81.3446+234.028+81.3071C234.59+82.6548+234.87+84.0586+234.87+85.5186C234.87+86.8662+234.431+87.7834+233.551+88.27C232.671+88.7567+230.996+89+228.525+89C222.461+89+218.624+88.9064+217.014+88.7192C215.404+88.5321+214.3+87.9237+213.701+86.8943C213.102+85.8648+212.802+84.1335+212.802+81.7002L212.802+61.8784C212.802+54.2417+212.101+49.1225+210.697+46.5208C209.293+43.919+207.019+42.6182+203.874+42.6182C201.216+42.6182+199.12+43.3949+197.585+44.9485C196.05+46.502+195.283+49.7495+195.283+54.6909L195.283+65.9775C195.283+70.6943+195.377+75.8042+195.564+81.3071L202.246+81.3071C202.882+82.5425+203.2+83.9276+203.2+85.4624C203.2+86.7726+202.929+87.6898+202.386+88.2139C201.843+88.738+200.786+89+199.214+89L172.766+89C172.092+87.4277+171.755+85.9491+171.755+84.564C171.755+83.4035+172.017+82.5706+172.541+82.0652C173.065+81.5598+173.908+81.3071+175.068+81.3071L179.167+81.3071C179.354+75.1304+179.448+68.7477+179.448+62.1592C179.448+51.6774+178.952+45.4819+177.96+43.5728C176.968+41.6636+175.237+40.709+172.766+40.709C172.092+39.2116+171.755+37.7142+171.755+36.2168C171.755+34.8691+172.251+33.9894+173.243+33.5776C174.235+33.1659+180.421+32.7915+191.802+32.4546C191.989+34.0269+191.989+36.1794+191.802+38.9121Z" fill="#354e13" stroke-linecap="round" opacity="1" stroke-linejoin="round"/>
<path stroke="#323e28" stroke-width="1.5" d="M265.698+42.2812C265.698+55.6455+265.735+65.4441+265.81+71.677C265.885+77.9099+265.923+84.2083+265.923+90.5723C265.923+95.888+265.174+100.118+263.677+103.263C262.179+106.407+259.793+108.934+256.517+110.843C253.242+112.752+248.59+113.707+242.563+113.707C238.558+113.707+235.778+113.426+234.225+112.865C232.671+112.303+231.894+110.862+231.894+108.541C231.894+106.07+232.718+103.749+234.365+101.578C240.617+103.45+244.763+104.011+246.803+103.263C248.843+102.514+249.863+97.7598+249.863+89L249.863+65.9775C249.863+57.7044+249.798+52.2202+249.667+49.5249C249.535+46.8296+249.245+44.8455+248.796+43.5728C248.347+42.3+247.617+41.5045+246.606+41.1863C245.595+40.8681+244.267+40.709+242.619+40.709C241.983+39.6608+241.665+38.4442+241.665+37.0591C241.665+35.3371+242.32+34.1392+243.63+33.4653C244.94+32.7915+249.002+32.4546+255.815+32.4546C259.634+32.4546+262.142+32.6418+263.34+33.0161C264.538+33.3905+265.23+34.0924+265.417+35.1218C265.604+36.1513+265.698+38.5378+265.698+42.2812ZM254.748+25.1548C251.379+25.1548+248.946+24.509+247.448+23.2175C245.951+21.926+245.202+20.1011+245.202+17.7427C245.24+15.272+246.204+13.2411+248.094+11.6501C249.985+10.0592+252.689+9.26367+256.208+9.26367C259.802+9.26367+262.348+9.94686+263.845+11.3132C265.342+12.6796+266.091+14.4671+266.091+16.6758C266.091+19.109+265.193+21.1305+263.396+22.7402C261.599+24.3499+258.716+25.1548+254.748+25.1548Z" fill="#354e13" stroke-linecap="round" opacity="1" stroke-linejoin="round"/>
<path stroke="#323e28" stroke-width="1.5" d="M314.326+84.6763C311.518+86.0988+308.318+87.3622+304.724+88.4666C301.13+89.5709+297.742+90.123+294.56+90.123C289.132+90.123+285.155+88.869+282.628+86.3608C280.101+83.8527+278.838+80.3338+278.838+75.8042C278.838+69.4777+281.009+64.7796+285.351+61.71C289.694+58.6403+296.544+57.1055+305.903+57.1055L312.024+57.1055C311.687+51.3405+310.732+47.4005+309.16+45.2854C307.588+43.1703+305.229+42.1128+302.085+42.1128C300.363+42.1128+298.491+42.3374+296.469+42.7866C295.159+45.2573+294.382+46.5675+294.139+46.7173C293.896+46.867+292.604+47.2039+290.265+47.728C287.925+48.2521+286.268+48.0837+285.295+47.2227C284.322+46.3617+283.339+44.8455+282.347+42.6743C281.355+40.5031+280.859+38.6688+280.859+37.1714C280.859+36.2355+281.243+35.5055+282.01+34.9814C282.778+34.4574+285.613+33.8958+290.517+33.2969C295.421+32.6979+300.643+32.3984+306.184+32.3984C312.772+32.3984+317.938+33.5308+321.682+35.7957C325.425+38.0605+327.297+42.4497+327.297+48.9634L327.297+63.8438C327.297+72.1169+327.653+77.1986+328.364+79.0891C329.075+80.9796+330.348+81.7189+332.182+81.3071C332.744+82.3553+333.025+83.3848+333.025+84.3955C333.025+86.0801+332.023+87.3622+330.021+88.2419C328.018+89.1217+325.313+89.5615+321.906+89.5615C320.409+89.5615+319.23+89.3743+318.369+89C317.508+88.6257+316.16+87.1844+314.326+84.6763ZM312.024+66.0337C309.328+65.4722+306.596+65.1914+303.825+65.1914C300.681+65.1914+298.435+65.7155+297.087+66.7637C295.74+67.8118+295.066+69.7959+295.066+72.7158C295.066+75.2614+295.73+77.1799+297.059+78.4714C298.388+79.7629+300.325+80.4087+302.871+80.4087C304.892+80.4087+306.68+79.9782+308.233+79.1172C309.787+78.2562+310.807+77.0302+311.294+75.4392C311.78+73.8482+312.024+71.7799+312.024+69.2344L312.024+66.0337Z" fill="#354e13" stroke-linecap="round" opacity="1" stroke-linejoin="round"/>
<path stroke="#608a32" stroke-width="1.5" d="M390.534+54.7471C386.454+52.3512+384.414+48.5703+384.414+43.4043C384.414+37.7891+384.601+32.5295+384.975+27.6255C385.35+22.7215+385.368+19.0997+385.031+16.76C384.695+14.4203+383.534+12.8855+381.55+12.1555C379.566+11.4255+375.018+12.3521+367.905+14.9351C365.846+13.0259+364.817+10.5926+364.817+7.63525C364.817+5.05225+365.603+3.33024+367.175+2.46924C368.747+1.60824+372.285+1.17773+377.788+1.17773C384.264+1.17773+389.131+1.86092+392.387+3.22729C395.644+4.59367+398.031+6.84912+399.547+9.99365C401.063+13.1382+401.821+17.8737+401.821+24.2002L401.821+40.0913C401.821+45.145+402.813+48.7107+404.797+50.7883C406.781+52.866+407.773+54.1762+407.773+54.719C407.773+55.2618+406.781+56.5814+404.797+58.6777C402.813+60.7741+401.821+64.3304+401.821+69.3467L401.821+83.1602C401.821+89.0749+401.063+93.6045+399.547+96.749C398.031+99.8936+395.279+102.598+391.292+104.863C387.306+107.128+382.112+108.26+375.71+108.26C371.592+108.26+368.747+107.83+367.175+106.969C365.603+106.108+364.817+104.386+364.817+101.803C364.817+98.8454+365.846+96.4121+367.905+94.5029C375.018+97.0859+379.566+98.0125+381.55+97.2825C383.534+96.5525+384.695+95.0177+385.031+92.678C385.368+90.3383+385.35+86.7165+384.975+81.8125C384.601+76.9085+384.414+71.6676+384.414+66.0898C384.414+60.8864+386.454+57.1055+390.534+54.7471Z" fill="#88c34d" stroke-linecap="round" opacity="1" stroke-linejoin="round"/>
<path stroke="#608a32" stroke-width="1.5" d="M446.518+54.7471C442.438+52.3512+440.398+48.5703+440.398+43.4043C440.398+37.7891+440.585+32.5295+440.959+27.6255C441.334+22.7215+441.352+19.0997+441.015+16.76C440.678+14.4203+439.518+12.8855+437.534+12.1555C435.55+11.4255+431.001+12.3521+423.889+14.9351C421.83+13.0259+420.8+10.5926+420.8+7.63525C420.8+5.05225+421.587+3.33024+423.159+2.46924C424.731+1.60824+428.269+1.17773+433.772+1.17773C440.248+1.17773+445.114+1.86092+448.371+3.22729C451.628+4.59367+454.015+6.84912+455.531+9.99365C457.047+13.1382+457.805+17.8737+457.805+24.2002L457.805+40.0913C457.805+45.145+458.797+48.7107+460.781+50.7883C462.765+52.866+463.757+54.1762+463.757+54.719C463.757+55.2618+462.765+56.5814+460.781+58.6777C458.797+60.7741+457.805+64.3304+457.805+69.3467L457.805+83.1602C457.805+89.0749+457.047+93.6045+455.531+96.749C454.015+99.8936+451.263+102.598+447.276+104.863C443.289+107.128+438.095+108.26+431.694+108.26C427.576+108.26+424.731+107.83+423.159+106.969C421.587+106.108+420.8+104.386+420.8+101.803C420.8+98.8454+421.83+96.4121+423.889+94.5029C431.001+97.0859+435.55+98.0125+437.534+97.2825C439.518+96.5525+440.678+95.0177+441.015+92.678C441.352+90.3383+441.334+86.7165+440.959+81.8125C440.585+76.9085+440.398+71.6676+440.398+66.0898C440.398+60.8864+442.438+57.1055+446.518+54.7471Z" fill="#88c34d" stroke-linecap="round" opacity="1" stroke-linejoin="round"/>
<path stroke="#608a32" stroke-width="1.5" d="M19.8506+54.7471C23.9684+57.1055+26.0273+60.8864+26.0273+66.0898C26.0273+71.6676+25.8402+76.9085+25.4658+81.8125C25.0915+86.7165+25.0727+90.3383+25.4097+92.678C25.7466+95.0177+26.9071+96.5525+28.8911+97.2825C30.8752+98.0125+35.4235+97.0859+42.5361+94.5029C44.5576+96.4121+45.5683+98.8454+45.5683+101.803C45.5683+104.386+44.7916+106.108+43.238+106.969C41.6845+107.83+38.1562+108.26+32.6533+108.26C26.1771+108.26+21.3012+107.577+18.0256+106.211C14.7501+104.844+12.3636+102.589+10.8662+99.4443C9.3688+96.2998+8.62011+91.583+8.62011+85.2939L8.62011+69.3467C8.62011+64.293+7.61872+60.7273+5.61596+58.6497C3.61319+56.572+2.61181+55.2618+2.61181+54.719C2.61181+54.1762+3.61319+52.8566+5.61596+50.7603C7.61872+48.6639+8.62011+45.1076+8.62011+40.0913L8.62011+26.2778C8.62011+20.3631+9.3688+15.8335+10.8662+12.689C12.3636+9.54443+15.1151+6.83976+19.1206+4.57495C23.1261+2.31014+28.3296+1.17773+34.7309+1.17773C38.8488+1.17773+41.6845+1.60824+43.238+2.46924C44.7916+3.33024+45.5683+5.05225+45.5683+7.63525C45.5683+10.5926+44.5576+13.0259+42.5361+14.9351C35.4235+12.3521+30.8752+11.4255+28.8911+12.1555C26.9071+12.8855+25.7466+14.4203+25.4097+16.76C25.0727+19.0997+25.0915+22.7215+25.4658+27.6255C25.8402+32.5295+26.0273+37.7891+26.0273+43.4043C26.0273+48.5703+23.9684+52.3512+19.8506+54.7471Z" fill="#88c34d" stroke-linecap="round" opacity="1" stroke-linejoin="round"/>
<path stroke="#608a32" stroke-width="1.5" d="M75.8345+54.7471C79.9523+57.1055+82.0112+60.8864+82.0112+66.0898C82.0112+71.6676+81.824+76.9085+81.4497+81.8125C81.0753+86.7165+81.0566+90.3383+81.3935+92.678C81.7305+95.0177+82.8909+96.5525+84.875+97.2825C86.859+98.0125+91.4074+97.0859+98.52+94.5029C100.541+96.4121+101.552+98.8454+101.552+101.803C101.552+104.386+100.775+106.108+99.2219+106.969C97.6684+107.83+94.1401+108.26+88.6372+108.26C82.161+108.26+77.2851+107.577+74.0095+106.211C70.734+104.844+68.3475+102.589+66.8501+99.4443C65.3527+96.2998+64.604+91.583+64.604+85.2939L64.604+69.3467C64.604+64.293+63.6026+60.7273+61.5998+58.6497C59.5971+56.572+58.5957+55.2618+58.5957+54.719C58.5957+54.1762+59.5971+52.8566+61.5998+50.7603C63.6026+48.6639+64.604+45.1076+64.604+40.0913L64.604+26.2778C64.604+20.3631+65.3527+15.8335+66.8501+12.689C68.3475+9.54443+71.0989+6.83976+75.1045+4.57495C79.11+2.31014+84.3135+1.17773+90.7148+1.17773C94.8327+1.17773+97.6684+1.60824+99.2219+2.46924C100.775+3.33024+101.552+5.05225+101.552+7.63525C101.552+10.5926+100.541+13.0259+98.52+14.9351C91.4074+12.3521+86.859+11.4255+84.875+12.1555C82.8909+12.8855+81.7305+14.4203+81.3935+16.76C81.0566+19.0997+81.0753+22.7215+81.4497+27.6255C81.824+32.5295+82.0112+37.7891+82.0112+43.4043C82.0112+48.5703+79.9523+52.3512+75.8345+54.7471Z" fill="#88c34d" stroke-linecap="round" opacity="1" stroke-linejoin="round"/>
</g>
</svg>
